<svg xmlns="http://www.w3.org/2000/svg" version="1.1" xmlns:xlink="http://www.w3.org/1999/xlink" xmlns:svgjs="http://svgjs.dev/svgjs" width="2000" height="1250" viewBox="0 0 2000 1250"><g transform="matrix(1,0,0,1,0,0)"><svg viewBox="0 0 512 320" data-background-color="#ffffff" preserveAspectRatio="xMidYMid meet" height="1250" width="2000" xmlns="http://www.w3.org/2000/svg" xmlns:xlink="http://www.w3.org/1999/xlink"><g id="tight-bounds" transform="matrix(1,0,0,1,0,0)"><svg viewBox="0 0 512 320" height="320" width="512"><g><svg></svg></g><g><svg viewBox="0 0 512 320" height="320" width="512"><g><path transform="translate(256,160) scale(160,160)" d="M-1 0c0-0.552 0.448-1 1-1 0.552 0 1 0.448 1 1 0 0.552-0.448 1-1 1-0.552 0-1-0.448-1-1z" fill="#ffffff" fill-rule="nonzero" stroke="none" stroke-width="1" stroke-linecap="butt" stroke-linejoin="miter" stroke-miterlimit="10" stroke-dasharray="" stroke-dashoffset="0" font-family="none" font-weight="none" font-size="none" text-anchor="none" style="mix-blend-mode: normal" data-fill-palette-color="tertiary"></path></g><g transform="matrix(1,0,0,1,116,20)"><svg viewBox="0 0 280 280" height="280" width="280"><g><svg viewBox="0 0 280 280" height="280" width="280"><g><svg viewBox="0 0 280 280" height="280" width="280"><g id="textblocktransform"><svg viewBox="0 0 280 280" height="280" width="280" id="textblock"><g><svg viewBox="0 0 280 280" height="280" width="280"><g transform="matrix(1,0,0,1,74.00336708925556,74.02995426374544)"><svg viewBox="0 0 131.99326582148888 131.94009147250912" height="131.94009147250912" width="131.99326582148888"><g id="icon-0"><svg xmlns="http://www.w3.org/2000/svg" xmlns:xlink="http://www.w3.org/1999/xlink" version="1.1" x="0" y="0" viewBox="9.966767696419392 9.990941665775189 80.04210916500327 80.00986367869513" enable-background="new 0 0 100 100" xml:space="preserve" height="131.94009147250912" width="131.99326582148888" class="icon-xg-0" data-fill-palette-color="quaternary" id="xg-0"><g fill="#ffffff" data-fill-palette-color="quaternary"><g fill="#ffffff" data-fill-palette-color="quaternary"><g fill="#ffffff" data-fill-palette-color="quaternary"><path d="M67.99 14.27c19.729 9.94 27.67 33.98 17.74 53.72l-7.521-7.79c5.64-15.58-2.43-32.78-18.01-38.41-0.312-0.12-0.92-0.32-1.24-0.42l-5.33-2.05 2.91 3.35 21.67 37.53 6.04 10.46c-0.75 1.31-2.4 3.64-3.39 4.779-14.052 17.051-39.262 19.48-56.302 5.42l3.102-10.829c11.06 12.329 30.029 13.37 42.37 2.31 0.63-0.55 1.76-1.68 2.31-2.31L66.55 60H36.36l2.87-10h20.229l2.61 0.75-1.95-1.89-9.46-16.38-0.66-2.64-0.66 2.64L39.23 50 27.66 70.03l-5.19 8.989C9.821 67.77 6.18 46.88 14.27 32.01 24.21 12.28 48.25 4.34 67.99 14.27zM43.46 22.67l2.91-3.35-5.33 2.05C26.26 25.83 17.2 41.53 20.72 56.55l0.892 5.65L23.06 58 43.46 22.67z" fill="#000000" data-fill-palette-color="quaternary"></path></g></g></g></svg></g></svg></g><g id="text-0"><path d="M36.659 80.618l1.2 1.325-4.233 10.554-1.193-0.479-1.054-4.2-6.885 0.085-4.42 11.02 4.864 4.873 4.377-4.868 1.185 1.363-4.099 10.218-1.193-0.478-1.199-4.215-17.63-17.786-0.12-4.583 27.148-0.281zM22.489 87.911l-13.187 0.144 9.354 9.412z" fill="#000000" data-fill-palette-color="quaternary"></path><path d="M59.043 55.68c-0.859 0.865-1.91 1.415-3.155 1.652v0l4.747 4.714 4.637-2.545 0.588 1.688-8.536 8.596-0.912-0.906 0.44-4.036-13.343-13.25-3.577 0.922-0.912-0.906 2.32-6.657 4.121 2.337 0.695-6.317c0.4-0.679 0.945-1.365 1.634-2.058v0c0.92-0.927 2.05-1.48 3.389-1.66 1.344-0.185 2.725 0.012 4.144 0.589 1.427 0.577 2.742 1.463 3.944 2.657v0c1.316 1.307 2.146 2.928 2.489 4.864 0.343 1.936 0.253 3.851-0.271 5.747-0.519 1.901-1.34 3.417-2.463 4.548v0zM49.097 42.929c-0.623 0.627-1.11 1.346-1.463 2.158-0.352 0.811-0.585 1.929-0.698 3.355v0l4.262 4.232c0.898 0.892 1.982 1.307 3.251 1.246 1.274-0.066 2.531-0.724 3.771-1.974v0c0.906-0.912 1.25-1.929 1.034-3.05-0.212-1.117-0.969-2.322-2.272-3.615v0c-1.454-1.444-2.914-2.417-4.378-2.918-1.465-0.502-2.634-0.313-3.507 0.566z" fill="#000000" data-fill-palette-color="quaternary"></path><path d="M97.715 30.792c-1.127 0.464-2.31 0.563-3.549 0.298v0l2.546 6.187 5.261-0.547-0.113 1.784-11.203 4.611-0.489-1.189 1.972-3.549-7.157-17.389-3.654-0.538-0.49-1.189 4.722-5.235 2.891 3.752 3.092-5.552c0.632-0.47 1.4-0.891 2.304-1.263v0c1.208-0.497 2.464-0.569 3.768-0.215 1.311 0.351 2.507 1.068 3.59 2.151 1.092 1.086 1.96 2.412 2.605 3.979v0c0.706 1.715 0.842 3.532 0.407 5.448-0.435 1.917-1.261 3.648-2.48 5.192-1.216 1.55-2.561 2.629-4.035 3.236v0zM93.495 15.181c-0.817 0.336-1.546 0.81-2.185 1.421-0.639 0.611-1.288 1.551-1.946 2.821v0l2.286 5.555c0.482 1.17 1.319 1.974 2.513 2.409 1.199 0.433 2.613 0.315 4.242-0.355v0c1.189-0.489 1.901-1.293 2.136-2.411 0.238-1.112 0.007-2.516-0.691-4.213v0c-0.78-1.895-1.748-3.358-2.903-4.388-1.156-1.031-2.306-1.31-3.452-0.839z" fill="#000000" data-fill-palette-color="quaternary"></path><path d="M151.686 20.719l-0.791 1.609-7.072 0.012-0.005-3.114-4.033 3.191c-0.475 0.195-1.071 0.293-1.787 0.295v0c-2.096 0.004-3.61-0.513-4.543-1.549-0.933-1.036-1.4-2.295-1.403-3.775v0c-0.001-0.857 0.295-1.708 0.89-2.553 0.595-0.845 1.464-1.65 2.607-2.415v0l8.257-0.015-0.003-1.928c-0.005-2.786-1.497-4.176-4.477-4.171v0c-1.5 0.003-3.38 0.85-5.641 2.541v0l-1.078-1.495 5.106-4.047c1.098-0.243 2.29-0.366 3.576-0.368v0c2.264-0.004 4.022 0.542 5.276 1.638 1.247 1.089 1.873 2.672 1.877 4.749v0l0.017 10.145zM139.278 19.314c1.406-0.002 2.919-0.638 4.537-1.906v0l-0.006-3.355-6.218 0.011c-0.287 0.355-0.491 0.711-0.611 1.065-0.113 0.362-0.169 0.757-0.168 1.186v0c0.001 0.83 0.227 1.537 0.676 2.118 0.456 0.589 1.053 0.882 1.79 0.881z" fill="#000000" data-fill-palette-color="quaternary"></path><path d="M183.187 26.382c-0.301 0.902-0.549 1.741-0.745 2.516-0.195 0.775-0.294 1.314-0.296 1.617v0l-9.44 6.041-1.073-1.639c1.894-1.147 3.261-2.209 4.102-3.185 0.841-0.976 1.54-2.299 2.099-3.97v0l4.245-12.72-2.321-3.105 0.407-1.219 6.69-0.182 1.458 0.487zM189.35 0.143c0.743 0.248 1.265 0.715 1.565 1.402 0.292 0.69 0.31 1.42 0.053 2.188v0c-0.18 0.54-0.52 0.998-1.02 1.375-0.498 0.37-1.055 0.612-1.671 0.724-0.614 0.106-1.169 0.076-1.665-0.089v0c-0.724-0.242-1.239-0.699-1.543-1.373-0.303-0.68-0.321-1.417-0.056-2.211v0c0.18-0.54 0.523-0.997 1.03-1.372 0.498-0.37 1.055-0.612 1.671-0.724 0.614-0.106 1.159-0.079 1.636 0.08z" fill="#000000" data-fill-palette-color="quaternary"></path><path d="M215.691 47.501l-1.611 0.816-8.264-6.007 0.756-1.04 4.062-0.189 5.883-8.093-1.286-3.629 0.756-1.04 6.516 1.731 1.243 0.903-9.958 13.699zM228.049 20.831c0.639 0.465 0.996 1.067 1.07 1.808 0.076 0.75-0.125 1.453-0.601 2.109v0c-0.335 0.46-0.797 0.795-1.388 1.003-0.592 0.199-1.196 0.261-1.811 0.186-0.617-0.085-1.14-0.282-1.569-0.594v0c-0.612-0.445-0.96-1.037-1.043-1.776-0.087-0.734 0.115-1.44 0.608-2.117v0c0.335-0.46 0.797-0.795 1.387-1.003 0.592-0.199 1.198-0.259 1.82-0.18 0.617 0.085 1.127 0.272 1.527 0.564z" fill="#000000" data-fill-palette-color="quaternary"></path><path d="M246.688 60.875l-1.19-1.479 6.018-8.312 1.023-0.796 4.13 2.411 0.944 1.213z" fill="#000000" data-fill-palette-color="quaternary"></path><path d="M253.98 98.579c0.576-0.236 0.978-0.784 1.206-1.644 0.225-0.866 0.419-2.132 0.584-3.799v0c0.143-1.419 0.293-2.565 0.449-3.439 0.156-0.874 0.426-1.683 0.81-2.426 0.38-0.734 0.923-1.246 1.629-1.535v0c0.793-0.324 1.783-0.328 2.97-0.009 1.184 0.312 2.288 0.844 3.312 1.597 1.031 0.751 1.717 1.544 2.059 2.381v0c0.423 1.035 0.788 2.29 1.094 3.763 0.304 1.468 0.427 2.575 0.371 3.322v0l-5.188 2.122-0.582-1.423c1.023-1.214 1.718-2.425 2.086-3.631 0.367-1.207 0.352-2.297-0.046-3.27v0c-0.261-0.638-0.641-1.08-1.139-1.325-0.498-0.245-1.001-0.263-1.509-0.055v0c-0.638 0.261-1.072 0.837-1.302 1.726-0.229 0.89-0.437 2.212-0.624 3.967v0c-0.111 1.355-0.242 2.461-0.391 3.318-0.152 0.865-0.412 1.655-0.778 2.369-0.36 0.712-0.884 1.208-1.572 1.49v0c-0.812 0.332-1.811 0.321-2.998-0.033-1.184-0.348-2.296-0.909-3.337-1.685-1.038-0.769-1.733-1.585-2.086-2.446v0c-0.451-1.103-0.857-2.475-1.216-4.115-0.36-1.64-0.527-2.838-0.504-3.593v0l5.226-2.137 0.581 1.423c-1.014 1.29-1.677 2.603-1.991 3.94-0.32 1.339-0.264 2.539 0.169 3.599v0c0.279 0.682 0.681 1.161 1.207 1.438 0.523 0.271 1.026 0.307 1.51 0.11z" fill="#000000" data-fill-palette-color="quaternary"></path><path d="M22.608 207.423l-1.932-0.126-4.695-11.364 1.291-0.533 3.98 2.454 5.276-5.277-4.901-11.866-7.455-0.104 0.282 7.078-1.943-0.154-4.553-11.02 1.291-0.533 4.108 2.368 27.105 0.443 3.56 3.464-20.811 20.736zM28.075 191.058l10.107-10.077-14.361-0.22z" fill="#000000" data-fill-palette-color="quaternary"></path><path d="M45.733 239.672c-0.936-0.92-1.538-2.051-1.806-3.394v0l-5.068 5.16 2.772 5.004-1.82 0.649-9.359-9.194 0.979-0.996 4.379 0.458 14.262-14.518-1.022-3.876 0.979-0.996 7.218 2.485-2.511 4.476 6.847 0.714c0.733 0.429 1.477 1.014 2.232 1.756v0c1.013 0.995 1.62 2.216 1.823 3.663 0.207 1.442 0.003 2.941-0.614 4.495-0.616 1.545-1.565 2.969-2.846 4.273v0c-1.413 1.438-3.166 2.349-5.26 2.732-2.094 0.383-4.169 0.298-6.225-0.257-2.06-0.559-3.707-1.444-4.939-2.656v0zM59.481 228.831c-0.683-0.671-1.462-1.192-2.337-1.564-0.879-0.376-2.094-0.621-3.643-0.734v0l-4.555 4.636c-0.957 0.975-1.399 2.151-1.325 3.528 0.074 1.377 0.792 2.735 2.153 4.072v0c0.994 0.976 2.096 1.345 3.306 1.107 1.215-0.243 2.517-1.071 3.906-2.485v0c1.553-1.581 2.598-3.17 3.132-4.766 0.53-1.591 0.318-2.856-0.637-3.794z" fill="#000000" data-fill-palette-color="quaternary"></path><path d="M91.834 268.576c-1.221-0.482-2.216-1.289-2.986-2.421v0l-2.657 6.727 4.504 3.528-1.423 1.306-12.202-4.819 0.513-1.298 4.212-1.285 7.475-18.929-2.452-3.172 0.513-1.298 7.616-0.524-0.567 5.1 6.583-2.012c0.842 0.109 1.756 0.359 2.74 0.748v0c1.32 0.521 2.356 1.409 3.106 2.663 0.753 1.248 1.148 2.707 1.187 4.378 0.035 1.663-0.284 3.344-0.955 5.045v0c-0.74 1.875-2 3.397-3.78 4.566-1.779 1.169-3.724 1.899-5.833 2.189-2.115 0.288-3.976 0.114-5.583-0.52v0zM100.269 253.234c-0.891-0.352-1.811-0.528-2.761-0.529-0.956-0.003-2.17 0.245-3.642 0.743v0l-2.387 6.045c-0.502 1.271-0.45 2.526 0.154 3.766 0.605 1.24 1.795 2.21 3.57 2.911v0c1.296 0.512 2.454 0.422 3.476-0.269 1.024-0.697 1.9-1.968 2.629-3.811v0c0.814-2.062 1.157-3.932 1.027-5.61-0.132-1.672-0.82-2.754-2.066-3.246z" fill="#000000" data-fill-palette-color="quaternary"></path><path d="M154.705 275.091l-0.831 1.749-7.663 0.104-0.046-3.365-4.322 3.505c-0.513 0.215-1.154 0.327-1.925 0.337v0c-2.27 0.031-3.915-0.509-4.934-1.62-1.026-1.111-1.55-2.464-1.572-4.058v0c-0.013-0.931 0.3-1.859 0.936-2.785 0.63-0.919 1.559-1.803 2.787-2.65v0l8.93-0.121-0.029-2.089c-0.041-3.013-1.672-4.498-4.893-4.455v0c-1.627 0.022-3.65 0.964-6.069 2.825v0l-1.187-1.611 5.475-4.444c1.182-0.271 2.469-0.415 3.861-0.435v0c2.451-0.033 4.361 0.533 5.73 1.701 1.369 1.167 2.068 2.872 2.099 5.115v0l0.149 10.988zM141.254 273.726c1.527-0.021 3.155-0.726 4.884-2.115v0l-0.049-3.646-6.73 0.091c-0.303 0.393-0.515 0.784-0.637 1.174-0.122 0.39-0.18 0.816-0.173 1.278v0c0.012 0.904 0.267 1.667 0.764 2.29 0.497 0.629 1.145 0.939 1.942 0.928z" fill="#000000" data-fill-palette-color="quaternary"></path><path d="M188.947 264.35c0.337 0.975 0.679 1.859 1.025 2.654 0.34 0.797 0.61 1.323 0.813 1.579v0l-4.116 11.417-2.007-0.698c0.862-2.24 1.332-4.054 1.412-5.442 0.077-1.394-0.196-2.993-0.821-4.797v0l-4.745-13.707-4.032-1.145-0.453-1.31 5.615-4.569 1.575-0.546zM176.916 237.763c0.804-0.278 1.562-0.218 2.273 0.18 0.71 0.392 1.208 1.003 1.495 1.832v0c0.204 0.589 0.213 1.209 0.028 1.861-0.181 0.644-0.5 1.218-0.955 1.723-0.458 0.499-0.953 0.84-1.485 1.024v0c-0.785 0.272-1.528 0.213-2.229-0.174-0.708-0.386-1.208-1.003-1.501-1.851v0c-0.204-0.589-0.216-1.208-0.038-1.858 0.187-0.646 0.51-1.218 0.969-1.717 0.45-0.503 0.931-0.843 1.443-1.02z" fill="#000000" data-fill-palette-color="quaternary"></path><path d="M226.475 244.575l0.317 1.923-8.918 6.557-0.828-1.124 1.152-4.251-6.414-8.724-4.175 0.139-0.827-1.125 3.929-6.155 1.343-0.988 10.865 14.779zM203.029 223.062c0.685-0.504 1.425-0.674 2.219-0.509 0.798 0.17 1.457 0.608 1.976 1.315v0c0.365 0.496 0.556 1.084 0.572 1.761 0.016 0.678-0.118 1.321-0.402 1.929-0.29 0.612-0.664 1.087-1.123 1.424v0c-0.664 0.488-1.391 0.652-2.18 0.494-0.786-0.153-1.447-0.594-1.983-1.323v0c-0.365-0.496-0.556-1.084-0.572-1.762-0.016-0.678 0.118-1.321 0.402-1.929 0.29-0.612 0.653-1.079 1.091-1.4z" fill="#000000" data-fill-palette-color="quaternary"></path><path d="M237.455 211.426l-1.231 1.639-10.317-4.142-1.099-0.861 1.439-4.97 1.021-1.305z" fill="#000000" data-fill-palette-color="quaternary"></path><path d="M264.357 186.223c-0.617-0.26-1.344-0.149-2.18 0.334-0.839 0.489-1.961 1.306-3.366 2.451v0c-1.197 0.978-2.191 1.74-2.981 2.286-0.79 0.546-1.613 0.955-2.469 1.226-0.856 0.271-1.663 0.247-2.422-0.073v0c-0.858-0.362-1.618-1.118-2.281-2.27-0.665-1.145-1.1-2.397-1.305-3.755-0.208-1.367-0.123-2.501 0.257-3.402v0c0.471-1.117 1.153-2.355 2.047-3.716 0.893-1.36 1.646-2.3 2.257-2.82v0l5.6 2.362-0.644 1.527c-1.713 0.15-3.173 0.544-4.38 1.183-1.205 0.633-2.028 1.474-2.47 2.524v0c-0.291 0.691-0.342 1.32-0.153 1.887 0.196 0.57 0.568 0.97 1.118 1.201v0c0.685 0.289 1.457 0.182 2.315-0.32 0.853-0.505 2.022-1.357 3.508-2.555v0c1.127-0.949 2.078-1.696 2.854-2.241 0.779-0.537 1.581-0.94 2.406-1.21 0.823-0.263 1.602-0.24 2.337 0.07v0c0.882 0.372 1.642 1.147 2.279 2.324 0.637 1.177 1.056 2.459 1.257 3.844 0.201 1.386 0.106 2.541-0.284 3.467v0c-0.502 1.191-1.247 2.552-2.234 4.083-0.979 1.528-1.768 2.572-2.368 3.134v0l-5.628-2.373 0.648-1.537c1.766-0.207 3.283-0.702 4.55-1.483 1.267-0.781 2.141-1.743 2.622-2.884v0c0.31-0.734 0.368-1.407 0.176-2.019-0.193-0.612-0.548-1.027-1.066-1.245z" fill="#000000" data-fill-palette-color="quaternary"></path><path d="M1.798 139.759c0-6.423 5.207-11.631 11.631-11.63 6.423 0 11.631 5.207 11.63 11.63 0 6.423-5.207 11.631-11.63 11.631-6.423 0-11.631-5.207-11.631-11.631z" fill="#000000" data-fill-palette-color="quaternary"></path><path d="M254.941 139.759c0-6.423 5.207-11.631 11.63-11.63 6.423 0 11.631 5.207 11.631 11.63 0 6.423-5.207 11.631-11.631 11.631-6.423 0-11.631-5.207-11.63-11.631z" fill="#000000" data-fill-palette-color="quaternary"></path></g><g id="text-1"></g></svg></g></svg></g></svg></g></svg></g></svg></g></svg></g><defs></defs></svg><rect width="512" height="320" fill="none" stroke="none" visibility="hidden"></rect></g></svg></g></svg>